<svg width="14" height="14" viewBox="0 0 14 14" fill="none" xmlns="http://www.w3.org/2000/svg">
<path d="M6.75746 0.0606338L1.75746 1.31063C1.3123 1.42193 1 1.82089 1 2.27976V8.5C1 11.5179 5.46085 13.4205 6.68981 13.8875C6.89208 13.9643 7.10792 13.9643 7.31019 13.8875C8.53915 13.4205 13 11.5179 13 8.5V2.27976C13 1.82089 12.6877 1.42193 12.2425 1.31063L7.24254 0.0606339C7.0833 0.0208239 6.9167 0.0208238 6.75746 0.0606338Z" fill="url(#paint0_linear_2156:19)"/>
<g filter="url(#filter0_d_2156:19)">
<path d="M3.80938 10C3.74271 10 3.68271 9.97667 3.62938 9.93C3.58271 9.87667 3.55938 9.81667 3.55938 9.75V3.25C3.55938 3.17667 3.58271 3.11667 3.62938 3.07C3.68271 3.02333 3.74271 3 3.80938 3H4.88938C5.04938 3 5.16604 3.07333 5.23938 3.22L6.99938 6.37L8.75938 3.22C8.83271 3.07333 8.94938 3 9.10938 3H10.1794C10.2527 3 10.3127 3.02333 10.3594 3.07C10.4127 3.11667 10.4394 3.17667 10.4394 3.25V9.75C10.4394 9.82333 10.4127 9.88333 10.3594 9.93C10.3127 9.97667 10.2527 10 10.1794 10H8.98938C8.91604 10 8.85271 9.97667 8.79938 9.93C8.75271 9.88333 8.72938 9.82333 8.72938 9.75V6L7.60938 8.09C7.52271 8.24333 7.40604 8.32 7.25938 8.32H6.73938C6.65271 8.32 6.58271 8.3 6.52938 8.26C6.47604 8.22 6.42938 8.16333 6.38938 8.09L5.25938 6V9.75C5.25938 9.81667 5.23604 9.87667 5.18938 9.93C5.14271 9.97667 5.08271 10 5.00938 10H3.80938Z" fill="white"/>
</g>
<defs>
<filter id="filter0_d_2156:19" x="1.55859" y="2" width="10.8809" height="11" filterUnits="userSpaceOnUse" color-interpolation-filters="sRGB">
<feFlood flood-opacity="0" result="BackgroundImageFix"/>
<feColorMatrix in="SourceAlpha" type="matrix" values="0 0 0 0 0 0 0 0 0 0 0 0 0 0 0 0 0 0 127 0" result="hardAlpha"/>
<feOffset dy="1"/>
<feGaussianBlur stdDeviation="1"/>
<feColorMatrix type="matrix" values="0 0 0 0 0.716732 0 0 0 0 0.258586 0 0 0 0 0 0 0 0 0.66 0"/>
<feBlend mode="normal" in2="BackgroundImageFix" result="effect1_dropShadow_2156:19"/>
<feBlend mode="normal" in="SourceGraphic" in2="effect1_dropShadow_2156:19" result="shape"/>
</filter>
<linearGradient id="paint0_linear_2156:19" x1="7" y1="0" x2="7" y2="14" gradientUnits="userSpaceOnUse">
<stop stop-color="#FFB800"/>
<stop offset="1" stop-color="#FF5C00"/>
</linearGradient>
</defs>
</svg>
